<svg width="58" height="255" viewBox="0 0 58 255" fill="none" xmlns="http://www.w3.org/2000/svg">
<path d="M1 241L1 137L26 111.5V99.5L7.5 117.5L7.5 85.5L19 74.5L19 95.5L13 102L13 32.5" stroke="#755E43"/>
<path d="M1 14.5L1 118.5L26 144V156L7.5 138L7.5 170L19 181L19 160L13 153.5L13 223" stroke="#755E43"/>
<path d="M7 77L7 0" stroke="#755E43"/>
<path d="M7 255L7 178" stroke="#755E43"/>
<path d="M33.5 141.5L20 127.5L33.5 114L47 127.5L33.5 141.5Z" stroke="#755E43"/>
<path d="M47.5 137L38 127.327L47.5 118L57 127.327L47.5 137Z" stroke="#755E43"/>
</svg>
