<svg width="58" height="255" viewBox="0 0 58 255" fill="none" xmlns="http://www.w3.org/2000/svg">
<path d="M57 241L57 137L32 111.5V99.5L50.5 117.5V85.5L39 74.5L39 95.5L45 102L45 32.5" stroke="#755E43"/>
<path d="M57 14.5L57 118.5L32 144V156L50.5 138V170L39 181L39 160L45 153.5L45 223" stroke="#755E43"/>
<path d="M51 77L51 0" stroke="#755E43"/>
<path d="M51 255L51 178" stroke="#755E43"/>
<path d="M24.5 141.5L38 127.5L24.5 114L11 127.5L24.5 141.5Z" stroke="#755E43"/>
<path d="M10.5 137L20 127.327L10.5 118L1 127.327L10.5 137Z" stroke="#755E43"/>
</svg>
