<svg width="378" height="85" viewBox="0 0 378 85" fill="none" xmlns="http://www.w3.org/2000/svg">
<path d="M20.75 46.9464H174.893L212.688 84H230.473L203.795 56.5803H251.223L267.527 73.625H236.402L226.768 64.7321H329.777" stroke="#E5A65E"/>
<path d="M356.455 46.9464H202.312L164.518 84H146.732L173.411 56.5803H125.982L109.679 73.625H140.804L150.437 64.7321H47.4286" stroke="#E5A65E"/>
<path d="M263.821 55.8392H377.946" stroke="#E5A65E"/>
<path d="M0 55.8392H114.125" stroke="#E5A65E"/>
<path d="M20.75 38.0536H174.893L212.688 1.00002H230.473L203.795 28.4197H251.223L267.527 11.375H236.402L226.768 20.2679H329.777" stroke="#E5A65E"/>
<path d="M356.455 38.0536H202.312L164.518 1.00002H146.732L173.411 28.4197H125.982L109.679 11.375H140.804L150.437 20.2679H47.4286" stroke="#E5A65E"/>
<path d="M263.821 29.1608H377.946" stroke="#E5A65E"/>
<path d="M0 29.1608H114.125" stroke="#E5A65E"/>
<g filter="url(#filter0_d_34_23)">
<path d="M203.054 42.5L188.232 27.6786L173.411 42.5L188.232 57.3214L203.054 42.5Z" fill="#E5A65E"/>
<path d="M174.118 42.5L188.232 28.3857L202.346 42.5L188.232 56.6143L174.118 42.5Z" stroke="#E5A65E"/>
</g>
<defs>
<filter id="filter0_d_34_23" x="160.411" y="14.6786" width="55.6428" height="55.6428" filterUnits="userSpaceOnUse" color-interpolation-filters="sRGB">
<feFlood flood-opacity="0" result="BackgroundImageFix"/>
<feColorMatrix in="SourceAlpha" type="matrix" values="0 0 0 0 0 0 0 0 0 0 0 0 0 0 0 0 0 0 127 0" result="hardAlpha"/>
<feOffset/>
<feGaussianBlur stdDeviation="6.5"/>
<feComposite in2="hardAlpha" operator="out"/>
<feColorMatrix type="matrix" values="0 0 0 0 1 0 0 0 0 0.729722 0 0 0 0 0.420833 0 0 0 1 0"/>
<feBlend mode="normal" in2="BackgroundImageFix" result="effect1_dropShadow_34_23"/>
<feBlend mode="normal" in="SourceGraphic" in2="effect1_dropShadow_34_23" result="shape"/>
</filter>
</defs>
</svg>
