<svg width="1920" height="92" viewBox="0 0 1920 92" fill="none" xmlns="http://www.w3.org/2000/svg">
<rect width="1920" height="1" fill="#755E43"/>
<path d="M784.631 4H945.322L984.722 42.6275H1003.26L975.451 14.0431H1024.89L1041.89 31.8118H1009.44L999.4 22.5412H1106.78" stroke="#755E43"/>
<path d="M1134.6 4H973.906L934.506 42.6275H915.965L943.776 14.0431H894.333L877.337 31.8118H909.784L919.827 22.5412H812.443" stroke="#755E43"/>
<path d="M1038.03 13.2706H1157" stroke="#755E43"/>
<path d="M763 13.2706H881.973" stroke="#755E43"/>
<path d="M938.369 54.2157L960 33.3569L980.859 54.2157L960 75.0745L938.369 54.2157Z" stroke="#755E43"/>
<path d="M945.05 75.8471L959.995 61.1686L974.407 75.8471L959.995 90.5255L945.05 75.8471Z" stroke="#755E43"/>
</svg>
