<svg width="226" height="207" viewBox="0 0 226 207" fill="none" xmlns="http://www.w3.org/2000/svg">
<path d="M18.5 187C17 195.5 15.5 199.5 13.5 207C32.5 199.5 43.5 197.5 62 193C61 189 61 186.5 60.5 182.5C103 172 141.5 176.5 164.5 182.5L162.5 193C180.5 197 195 200 211.5 207C209 199 208 194.5 206.5 186.5C213 182 218 179.5 225.5 176C211.5 171 199 167.5 187 163L189.5 152C145 141.5 93 137 35 152.5L38.5 163.5C24 168 14.5 170.5 0 177C8 180.5 12 183 18.5 187Z" fill="#D8A56A"/>
<path fill-rule="evenodd" clip-rule="evenodd" d="M49 143.5C46 143.5 41 143 37 142L31 133.5C36.5 133.5 42 134.5 45 138C45 132.876 45.8038 130.967 46.8231 128.546C47.1962 127.66 47.5981 126.706 48 125.5C51.2899 129.201 51.5357 132.564 51.7975 136.145C51.854 136.918 51.9112 137.701 52 138.5C51.7293 139.312 51.1655 140.124 50.5467 141.016C50.0224 141.771 49.4586 142.583 49 143.5ZM46 140.5C45.9334 141.114 46.5 142 46.5 142C46.5 142 47 142.5 48 142.5C49.2503 142.5 46.1372 139.235 46 140.5Z" fill="#D8A56A"/>
<path fill-rule="evenodd" clip-rule="evenodd" d="M42.9861 133.192C40.0473 131.576 35.0512 131.379 31.0543 131.222L25.3929 122.493C30.8887 122.709 36.3451 123.924 39.2053 127.539C39.4286 121.862 40.523 119.185 41.8234 116.006C42.125 115.268 42.4376 114.503 42.7531 113.668C46.5732 118.322 46.3571 123.817 46.2588 126.316C43.8187 130.042 43.5228 131.225 43.27 132.235C43.1919 132.547 43.1179 132.843 42.9861 133.192ZM40.1396 129.369C40.0489 129.98 40.5802 130.887 40.5802 130.887C40.5802 130.887 41.0602 131.407 42.0594 131.446C43.3087 131.495 40.3264 128.11 40.1396 129.369Z" fill="#D8A56A"/>
<path fill-rule="evenodd" clip-rule="evenodd" d="M36.5864 122.464C33.7134 120.733 28.7288 120.34 24.7412 120.026L19.427 111.082C24.91 111.513 30.3146 112.942 33.0305 116.667C33.4766 111.002 34.6753 108.371 36.0995 105.245C36.4299 104.52 36.7723 103.768 37.1204 102.945C40.7547 107.746 40.3229 113.229 40.1267 115.721C37.5421 119.349 37.1999 120.519 36.9077 121.519C36.8174 121.828 36.7318 122.12 36.5864 122.464ZM33.8922 118.531C33.7777 119.138 34.2729 120.066 34.2729 120.066C34.2729 120.066 34.7321 120.604 35.729 120.682C36.9754 120.78 34.1283 117.281 33.8922 118.531Z" fill="#D8A56A"/>
<path fill-rule="evenodd" clip-rule="evenodd" d="M30.8594 111.593C28.0699 109.731 23.109 109.107 19.1402 108.608L14.2474 99.4259C19.7044 100.112 25.0367 101.79 27.5767 105.637C28.2375 100.381 29.5442 98.006 31.0291 95.3075C31.5062 94.4405 32.0016 93.5402 32.5 92.5C35.7299 97.2052 35.1017 102.013 34.7619 104.613C34.7432 104.756 34.7254 104.893 34.7091 105.022C31.9587 108.526 31.5626 109.679 31.2242 110.664C31.1197 110.968 31.0206 111.256 30.8594 111.593ZM28.3508 107.54C28.2082 108.141 28.6598 109.091 28.6598 109.091C28.6598 109.091 29.0935 109.649 30.0857 109.774C31.3262 109.93 28.6447 106.302 28.3508 107.54Z" fill="#D8A56A"/>
<path fill-rule="evenodd" clip-rule="evenodd" d="M26 101.5C23.5904 99.1668 17.2939 96.1748 13.4793 94.9712L10.315 85.0597C15.5601 86.7147 20.5043 89.3233 22.3122 93.5637C24.0219 88.1449 25.782 85.8512 27.8735 83.1257C28.3586 82.4935 28.8615 81.8382 29.3857 81.1152C29.718 84.5817 29.9088 85.3077 30.4683 87.4361C30.6165 88 30.7906 88.6622 31 89.5C27.2088 95.3975 26.6116 98.4558 26.2186 100.469C26.1451 100.845 26.0788 101.185 26 101.5ZM23.913 97.2795C23.6648 97.8449 23.9385 98.8604 23.9385 98.8604C23.9385 98.8604 24.2649 99.4877 25.2185 99.7886C26.4109 100.165 24.4245 96.1142 23.913 97.2795Z" fill="#D8A56A"/>
<path d="M51.5001 148.5C-4.49999 53.5 6 40 86.0001 1" stroke="#D8A56A" stroke-width="2"/>
<path fill-rule="evenodd" clip-rule="evenodd" d="M177 143.5C180 143.5 185 143 189 142L195 133.5C189.5 133.5 184 134.5 181 138C181 132.876 180.196 130.967 179.177 128.546C178.804 127.66 178.402 126.706 178 125.5C174.71 129.201 174.464 132.564 174.203 136.145C174.146 136.918 174.089 137.701 174 138.5C174.271 139.312 174.835 140.124 175.453 141.016C175.978 141.771 176.542 142.583 177 143.5ZM180 140.5C180.067 141.114 179.5 142 179.5 142C179.5 142 179 142.5 178 142.5C176.75 142.5 179.863 139.235 180 140.5Z" fill="#D8A56A"/>
<path fill-rule="evenodd" clip-rule="evenodd" d="M183.014 133.192C185.953 131.576 190.949 131.379 194.946 131.222L200.607 122.493C195.111 122.709 189.655 123.924 186.795 127.539C186.572 121.862 185.477 119.185 184.177 116.006C183.875 115.268 183.562 114.503 183.247 113.668C179.427 118.322 179.643 123.817 179.741 126.316C182.181 130.042 182.477 131.225 182.73 132.235C182.808 132.547 182.882 132.843 183.014 133.192ZM185.861 129.369C185.951 129.98 185.42 130.887 185.42 130.887C185.42 130.887 184.94 131.407 183.941 131.446C182.691 131.495 185.674 128.11 185.861 129.369Z" fill="#D8A56A"/>
<path fill-rule="evenodd" clip-rule="evenodd" d="M189.414 122.464C192.287 120.733 197.271 120.34 201.259 120.026L206.573 111.082C201.09 111.513 195.686 112.942 192.97 116.667C192.524 111.002 191.325 108.371 189.901 105.245C189.57 104.52 189.228 103.768 188.88 102.945C185.245 107.746 185.677 113.229 185.873 115.721C188.458 119.349 188.8 120.519 189.092 121.519C189.183 121.828 189.268 122.12 189.414 122.464ZM192.108 118.531C192.222 119.138 191.727 120.066 191.727 120.066C191.727 120.066 191.268 120.604 190.271 120.682C189.025 120.78 191.872 117.281 192.108 118.531Z" fill="#D8A56A"/>
<path fill-rule="evenodd" clip-rule="evenodd" d="M195.141 111.593C197.93 109.731 202.891 109.107 206.86 108.608L211.753 99.4259C206.296 100.112 200.963 101.79 198.423 105.637C197.763 100.381 196.456 98.006 194.971 95.3075C194.494 94.4405 193.998 93.5402 193.5 92.5C190.27 97.2052 190.898 102.013 191.238 104.613C191.257 104.756 191.275 104.893 191.291 105.022C194.041 108.526 194.438 109.679 194.776 110.664C194.88 110.968 194.979 111.256 195.141 111.593ZM197.649 107.54C197.792 108.141 197.34 109.091 197.34 109.091C197.34 109.091 196.907 109.649 195.914 109.774C194.674 109.93 197.355 106.302 197.649 107.54Z" fill="#D8A56A"/>
<path fill-rule="evenodd" clip-rule="evenodd" d="M200 101.5C202.41 99.1668 208.706 96.1748 212.521 94.9712L215.685 85.0597C210.44 86.7147 205.496 89.3233 203.688 93.5637C201.978 88.1449 200.218 85.8512 198.127 83.1257C197.642 82.4935 197.139 81.8382 196.614 81.1152C196.282 84.5817 196.091 85.3077 195.532 87.4361C195.384 88 195.21 88.6622 195 89.5C198.791 95.3975 199.388 98.4558 199.782 100.469C199.855 100.845 199.921 101.185 200 101.5ZM202.087 97.2795C202.335 97.8449 202.062 98.8604 202.062 98.8604C202.062 98.8604 201.735 99.4877 200.782 99.7886C199.589 100.165 201.576 96.1142 202.087 97.2795Z" fill="#D8A56A"/>
<path d="M173.5 150.5C229.5 55.5 220 40 140 1" stroke="#D8A56A" stroke-width="2"/>
<path d="M89 11L100 37H127.5L138.5 11L121.5 23.5C136.5 34.5 103 35.5 121.5 17.5L113 2L106 17.5C123.5 33.5 92 36 105 23.5L89 11Z" fill="#D8A56A"/>
<path d="M116 110.05C103.68 110.05 93.725 100.095 93.725 87.775C93.725 75.51 103.68 65.5 116 65.5C120.675 65.5 125.075 67.975 128.65 70.395L132.115 65.5C127.605 62.255 122.05 60.275 116 60.275C100.82 60.275 88.5 72.595 88.5 87.775C88.5 102.955 100.82 115.275 116 115.275C122.16 115.275 127.88 113.24 132.5 109.775L128.485 105.21C124.855 107.905 120.895 110.05 116 110.05ZM112.315 68.91V106.64C113.525 106.86 114.735 107.025 116 107.025V68.525C114.735 68.525 113.525 68.69 112.315 68.91ZM107.64 70.45V105.1C108.85 105.705 110.06 106.145 111.38 106.475V69.13C110.06 69.405 108.85 69.9 107.64 70.45ZM103.735 72.925V102.625C104.67 103.395 105.66 104.055 106.705 104.605V70.945C105.66 71.495 104.67 72.155 103.735 72.925ZM96.75 87.775C96.75 93.275 99.06 98.225 102.8 101.745V73.805C99.06 77.325 96.75 82.275 96.75 87.775Z" fill="#D8A56A"/>
</svg>
