<svg width="264" height="58" viewBox="0 0 264 58" fill="none" xmlns="http://www.w3.org/2000/svg">
<g opacity="0.7">
<path opacity="0.7" d="M262.841 50.6348H183.441C183.181 50.6348 182.971 50.8448 182.971 51.1048C182.971 51.3648 183.181 51.5748 183.441 51.5748H262.841C263.101 51.5748 263.311 51.3648 263.311 51.1048C263.311 50.8448 263.101 50.6348 262.841 50.6348Z" fill="#D1A773"/>
<path opacity="0.7" d="M247.741 56.7645H141.411L132.681 48.0345L148.881 31.8345H160.521L141.591 50.7645C141.461 50.8945 141.411 51.1045 141.491 51.2745C141.561 51.4545 141.741 51.5645 141.931 51.5645H174.491C174.621 51.5645 174.741 51.5145 174.821 51.4245L180.341 45.9045H229.241C229.501 45.9045 229.711 45.6945 229.711 45.4345C229.711 45.1745 229.501 44.9645 229.241 44.9645H181.281L186.841 39.4045C186.971 39.2745 187.021 39.0645 186.941 38.8945C186.871 38.7145 186.691 38.6045 186.501 38.6045H164.201C164.071 38.6045 163.951 38.6545 163.871 38.7445L157.501 45.1145C157.371 45.2445 157.321 45.4545 157.401 45.6245C157.471 45.8045 157.651 45.9145 157.841 45.9145H179.001L174.281 50.6345H143.061L161.991 31.7045C162.121 31.5645 162.171 31.3645 162.091 31.1945C162.021 31.0145 161.841 30.9045 161.651 30.9045H148.671C148.541 30.9045 148.421 30.9545 148.341 31.0445L132.011 47.3745L115.671 31.0345C115.581 30.9445 115.461 30.8945 115.341 30.8945H102.361C102.171 30.8945 102.001 31.0045 101.921 31.1845C101.851 31.3645 101.891 31.5645 102.021 31.6945L120.951 50.6245H89.7305L85.0105 45.9045H106.171C106.361 45.9045 106.531 45.7945 106.611 45.6145C106.681 45.4345 106.641 45.2345 106.511 45.1045L100.141 38.7345C100.051 38.6445 99.9305 38.5945 99.8105 38.5945H77.5105C77.3205 38.5945 77.1505 38.7145 77.0705 38.8845C77.0005 39.0645 77.0405 39.2645 77.1705 39.3945L82.7305 44.9545H34.7705C34.5105 44.9545 34.3005 45.1645 34.3005 45.4245C34.3005 45.6845 34.5105 45.8945 34.7705 45.8945H83.6705L89.1905 51.4145C89.2805 51.5045 89.4006 51.5545 89.5206 51.5545H122.081C122.271 51.5545 122.441 51.4445 122.521 51.2645C122.591 51.0845 122.551 50.8845 122.421 50.7545L103.491 31.8245H115.131L131.331 48.0245L122.601 56.7545H16.2805C16.0205 56.7545 15.8105 56.9645 15.8105 57.2245C15.8105 57.4845 16.0205 57.6945 16.2805 57.6945H122.811C122.871 57.6945 122.931 57.6845 122.991 57.6545C123.051 57.6345 123.101 57.5945 123.141 57.5545L132.011 48.6845L140.881 57.5545C140.921 57.5945 140.981 57.6345 141.031 57.6545C141.091 57.6745 141.151 57.6945 141.211 57.6945H247.741C248.001 57.6945 248.211 57.4845 248.211 57.2245C248.211 56.9745 248.001 56.7645 247.741 56.7645ZM158.981 44.9745L164.411 39.5445H185.371L179.941 44.9745H158.981ZM78.6505 39.5445H99.6105L105.041 44.9745H84.0806L78.6505 39.5445Z" fill="#D1A773"/>
<path opacity="0.7" d="M81.0509 51.1048C81.0509 50.8448 80.841 50.6348 80.5809 50.6348H1.18094C0.920939 50.6348 0.710938 50.8448 0.710938 51.1048C0.710938 51.3648 0.920939 51.5748 1.18094 51.5748H80.5809C80.841 51.5748 81.0509 51.3648 81.0509 51.1048Z" fill="#D1A773"/>
<path opacity="0.7" d="M131.68 38.545C131.77 38.635 131.89 38.685 132.01 38.685C132.13 38.685 132.25 38.635 132.34 38.545L146.35 24.535C146.44 24.445 146.49 24.325 146.49 24.205C146.49 24.075 146.44 23.955 146.35 23.875L137.79 15.315L142.32 10.785C142.5 10.605 142.5 10.305 142.32 10.115L132.34 0.135C132.16 -0.045 131.86 -0.045 131.67 0.135L121.69 10.115C121.6 10.205 121.55 10.325 121.55 10.445C121.55 10.575 121.6 10.695 121.69 10.775L126.22 15.305L117.66 23.865C117.48 24.045 117.48 24.345 117.66 24.535L131.68 38.545ZM122.69 10.445L132.01 1.12501L141.33 10.445L137.13 14.645L132.34 9.855C132.16 9.675 131.85 9.675 131.67 9.855L126.88 14.645L122.69 10.445ZM136.46 15.305L132.01 19.755L127.56 15.305L132.01 10.855L136.46 15.305ZM126.89 15.975L131.68 20.765C131.77 20.855 131.89 20.905 132.01 20.905C132.13 20.905 132.26 20.855 132.34 20.765L137.13 15.975L145.36 24.205L132.01 37.545L118.66 24.205L126.89 15.975Z" fill="#D1A773"/>
</g>
</svg>
